<?xml version="1.0" encoding="UTF-8" standalone="no"?>
<!-- Created with Inkscape (http://www.inkscape.org/) -->

<svg
   width="600px"
   height="330px"
   viewBox="-140 -70 280 40"
   version="1.1"
   id="svg1"
   xml:space="preserve"
   inkscape:version="1.3 (0e150ed6c4, 2023-07-21)"
   xmlns:inkscape="http://www.inkscape.org/namespaces/inkscape"
   xmlns:sodipodi="http://sodipodi.sourceforge.net/DTD/sodipodi-0.dtd"
   xmlns="http://www.w3.org/2000/svg"
   xmlns:svg="http://www.w3.org/2000/svg"><sodipodi:namedview
     id="namedview1"
     pagecolor="#505050"
     bordercolor="#ffffff"
     borderopacity="1"
     inkscape:showpageshadow="0"
     inkscape:pageopacity="0"
     inkscape:pagecheckerboard="1"
     inkscape:deskcolor="#505050"
     inkscape:document-units="mm"
     inkscape:zoom="0.26173516"
     inkscape:cx="641.87021"
     inkscape:cy="189.12247"
     inkscape:window-width="1488"
     inkscape:window-height="1041"
     inkscape:window-x="2336"
     inkscape:window-y="143"
     inkscape:window-maximized="0"
     inkscape:current-layer="layer1" /><defs
     id="defs1" /><g
     inkscape:label="Слой 1"
     inkscape:groupmode="layer"
     id="layer1"><path
       style="fill:#1a8c1a;fill-opacity:1;stroke:none;stroke-width:1.065"
       d="m -125.09663,11.625137 37.402625,0.50544 c -0.25272,-30.07373 15.668671,-52.06041 24.513887,-60.905631 0,-0.252719 -27.293811,-26.282927 -27.293811,-26.282927 -18.016191,18.460739 -35.878481,58.979398 -34.622701,86.683118 z"
       id="path1"
       sodipodi:nodetypes="ccccc" /><path
       style="fill:#df2b50;fill-opacity:1;stroke:none;stroke-width:1.065"
       d="m 125.28628,11.877867 -37.402618,0.50544 c 0.25272,-30.07373 -15.66868,-52.06041 -24.51389,-60.905641 0,-0.252719 27.29381,-26.282927 27.29381,-26.282927 18.016188,18.460739 35.878478,58.979408 34.622698,86.683128 z"
       id="path2"
       sodipodi:nodetypes="ccccc" /><path
       style="fill:#ffdb19;fill-opacity:1;stroke:none;stroke-width:1.065"
       d="m -60.652912,-51.554978 -26.282931,-26.535649 c 37.304745,-42.905533 127.356376,-49.309993 173.871686,0.252719 0,0.252722 -26.28293,26.53565 -26.28293,26.53565 -35.88631,-30.326455 -78.596067,-35.128147 -121.305825,-0.25272 z"
       id="path3"
       sodipodi:nodetypes="ccccc" /><path
       d="m -1.1573775,-91.114786 -9.1155395,84.3967134 c -0.18406,0.28843 -0.35423,0.57714 -0.51105,0.86639 -0.15681,0.28925 -0.300301,0.57901 -0.430689,0.86841 -0.130387,0.28941 -0.247456,0.57841 -0.352242,0.86732 -0.104787,0.2889 -0.197294,0.57762 -0.277304,0.86535 -0.07998,0.28775 -0.147677,0.5745 -0.203743,0.86041 -0.05605,0.28592 -0.100189,0.57078 -0.13311,0.85421 -0.03291,0.28344 -0.05449,0.56550996 -0.0651,0.84578996 -0.0106,0.28028 -0.01012,0.55875 7.64e-4,0.83523 0.01088,0.27649 0.03232,0.55094 0.06386,0.82295 0.03154,0.27201004 0.07292,0.54154004 0.124311,0.80842004 0.05138,0.26689 0.112593,0.53131 0.182995,0.7924 0.0704,0.26109 0.150059,0.51888 0.238656,0.77352 0.08859,0.25464 0.185968,0.506 0.291931,0.75352 0.105961,0.24753 0.220548,0.49164 0.343059,0.7314 0.122513,0.23976 0.253433,0.47522 0.391663,0.70655 0.13824,0.23132 0.28374,0.45809 0.43688,0.68032 0.3062795,0.44447 0.6417695,0.87041 1.0027095,1.27453 0.36094,0.40411 0.74758,0.78653 1.15659,1.145 0.40901,0.35849 0.84022,0.693 1.29072,1.00057 0.45051,0.30756 0.92002,0.5883296 1.40543,0.8396896 0.48541,0.25135 0.98678,0.47354 1.5005,0.6634 0.25687,0.0949 0.51694,0.18162 0.77966,0.26013 0.26269,0.0786 0.52779,0.14876 0.79552,0.21027 0.26783,0.0611 0.53783,0.11456 0.80974,0.15847 0.27194,0.0438 0.54603,0.0789 0.82133,0.10437 0.2753,0.0255 0.55191,0.0414 0.82976,0.0479 0.27786,0.006 0.55685,0.003 0.83643,-0.0101 0.55916,-0.0263 1.10509,-0.0872 1.63593,-0.18068 0.53084,-0.0935 1.04666,-0.21961 1.54576,-0.37603 0.4991,-0.15642 0.98157,-0.34326 1.44553,-0.55842 0.46395,-0.21515 0.90931,-0.45828 1.33471,-0.72796 0.4254,-0.2696696 0.83063,-0.5655296 1.21406,-0.8855296 0.38344,-0.32 0.7448,-0.66415 1.08284,-1.03026 0.33805,-0.36612 0.65294,-0.75437 0.9421805,-1.16239 0.28925,-0.40803 0.5529,-0.83619 0.78993,-1.28194 0.23703,-0.44574 0.44719,-0.90899 0.6286,-1.38824 0.1814,-0.47925 0.33411,-0.97428 0.45645,-1.48283 0.12284,-0.50845 0.21428,-1.03083 0.27423,-1.56447 0.0599,-0.53366004 0.0879,-1.07857004 0.0819,-1.63312004 -0.006,-0.55454 -0.0455,-1.11868996 -0.12072,-1.68992996 -0.0752,-0.57124 -0.18613,-1.14967 -0.33403,-1.73339 -0.074,-0.29186 -0.15682,-0.58517 -0.24958,-0.87936 -0.0928,-0.2942 -0.19513,-0.58941 -0.30713,-0.88541 -0.11201,-0.296 -0.2339,-0.59278 -0.36558,-0.89007 -0.13167,-0.29729 -0.27323,-0.5948 -0.42499,-0.89284 z m 3.16792,83.3389234 a 7.9198384,7.9198384 0 0 1 0.79406,0.23811 7.9198384,7.9198384 0 0 1 0.76459,0.31977 7.9198384,7.9198384 0 0 1 0.72747,0.39796 7.9198384,7.9198384 0 0 1 0.68128,0.4718 7.9198384,7.9198384 0 0 1 0.62893,0.54042 7.9198384,7.9198384 0 0 1 0.5684,0.60333 7.9198384,7.9198384 0 0 1 0.50267,0.65913 7.9198384,7.9198384 0 0 1 0.43053,0.70857 7.9198384,7.9198384 0 0 1 0.35469,0.74912 7.9198384,7.9198384 0 0 1 0.27369,0.78259 7.9198384,7.9198384 0 0 1 0.19122,0.80663 7.9198384,7.9198384 0 0 1 0.10547,0.82245996 7.9198384,7.9198384 0 0 1 0.0189,0.82848 7.9198384,7.9198384 0 0 1 -0.0678,0.8265 7.9198384,7.9198384 0 0 1 -0.15378,0.81460004 7.9198384,7.9198384 0 0 1 -0.95584,2.28612 7.9198384,7.9198384 0 0 1 -1.61556,1.87861 7.9198384,7.9198384 0 0 1 -2.11732,1.28777 7.9198384,7.9198384 0 0 1 -2.41117,0.5705 7.9198384,7.9198384 0 0 1 -2.46959,-0.20273 7.9198384,7.9198384 0 0 1 -2.28611,-0.95584 7.9198384,7.9198384 0 0 1 -1.87861,-1.61556 7.9198384,7.9198384 0 0 1 -1.28778,-2.11732 7.9198384,7.9198384 0 0 1 -0.57049,-2.41117004 7.9198384,7.9198384 0 0 1 0.20272,-2.46958996 7.9198384,7.9198384 0 0 1 0.95585,-2.28611 7.9198384,7.9198384 0 0 1 1.61568,-1.87911 7.9198384,7.9198384 0 0 1 2.1172,-1.28728 7.9198384,7.9198384 0 0 1 2.41117,-0.57049 7.9198384,7.9198384 0 0 1 2.46958,0.20272 z"
       style="fill:#000000;fill-opacity:1;stroke-width:1.065"
       id="path6"
       inkscape:transform-center-x="0.072942009"
       inkscape:transform-center-y="-39.84836"
       transform="rotate(-90.0)" /></g></svg>
